HIERARCHY
ROOT Pelvis
{
	OFFSET 0.000000 0.000000 0.000000
	CHANNELS 6 Xposition Yposition Zposition Zrotation Yrotation Xrotation 
	JOINT Left_hip
	{
		OFFSET 0.069463 -0.088608 -0.009542
		CHANNELS 3 Zrotation Yrotation Xrotation
		JOINT Left_knee
		{
			OFFSET 0.030639 -0.359740 -0.005288
			CHANNELS 3 Zrotation Yrotation Xrotation
			JOINT Left_ankle
			{
				OFFSET -0.011068 -0.376034 -0.042462
				CHANNELS 3 Zrotation Yrotation Xrotation
				JOINT Left_foot
				{
					OFFSET 0.023192 -0.053321 0.111332
					CHANNELS 3 Zrotation Yrotation Xrotation
					End Site
					{
						OFFSET 0.000000 0.000000 0.000000
					}
				}
			}
		}
	}
	JOINT Right_hip
	{
		OFFSET -0.067438 -0.088025 -0.006263
		CHANNELS 3 Zrotation Yrotation Xrotation
		JOINT Right_knee
		{
			OFFSET -0.035962 -0.366229 -0.008063
			CHANNELS 3 Zrotation Yrotation Xrotation
			JOINT Right_ankle
			{
				OFFSET 0.013608 -0.375719 -0.040481
				CHANNELS 3 Zrotation Yrotation Xrotation
				JOINT Right_foot
				{
					OFFSET -0.021034 -0.045527 0.114617
					CHANNELS 3 Zrotation Yrotation Xrotation
					End Site
					{
						OFFSET 0.000000 0.000000 0.000000
					}
				}
			}
		}
	}
	JOINT Spine1
	{
		OFFSET -0.002610 0.101823 -0.019986
		CHANNELS 3 Zrotation Yrotation Xrotation
		JOINT Spine2
		{
			OFFSET 0.004114 0.128714 -0.000938
			CHANNELS 3 Zrotation Yrotation Xrotation
			JOINT Spine3
			{
				OFFSET 0.002191 0.048470 0.027684
				CHANNELS 3 Zrotation Yrotation Xrotation
				JOINT Neck
				{
					OFFSET -0.002856 0.198873 -0.044022
					CHANNELS 3 Zrotation Yrotation Xrotation
					JOINT Head
					{
						OFFSET 0.002981 0.062960 0.049860
						CHANNELS 3 Zrotation Yrotation Xrotation
						End Site
						{
							OFFSET 0.000000 0.000000 0.000000
						}
					}
				}
				JOINT Left_collar
				{
					OFFSET 0.073708 0.112550 -0.033440
					CHANNELS 3 Zrotation Yrotation Xrotation
					JOINT Left_shoulder
					{
						OFFSET 0.083291 0.030786 -0.008013
						CHANNELS 3 Zrotation Yrotation Xrotation
						JOINT Left_elbow
						{
							OFFSET 0.245601 -0.011792 -0.027873
							CHANNELS 3 Zrotation Yrotation Xrotation
							JOINT Left_wrist
							{
								OFFSET 0.232258 0.008622 -0.000487
								CHANNELS 3 Zrotation Yrotation Xrotation
								JOINT Left_palm
								{
									OFFSET 0.077300 -0.009457 -0.012851
									CHANNELS 3 Zrotation Yrotation Xrotation
									End Site
									{
										OFFSET 0.000000 0.000000 0.000000
									}
								}
							}
						}
					}
				}
				JOINT Right_collar
				{
					OFFSET -0.075339 0.110574 -0.037874
					CHANNELS 3 Zrotation Yrotation Xrotation
					JOINT Right_shoulder
					{
						OFFSET -0.086522 0.031207 -0.009986
						CHANNELS 3 Zrotation Yrotation Xrotation
						JOINT Right_elbow
						{
							OFFSET -0.237313 -0.011478 -0.019859
							CHANNELS 3 Zrotation Yrotation Xrotation
							JOINT Right_wrist
							{
								OFFSET -0.237599 0.007976 -0.003742
								CHANNELS 3 Zrotation Yrotation Xrotation
								JOINT Right_palm
								{
									OFFSET -0.076920 -0.006943 -0.009920
									CHANNELS 3 Zrotation Yrotation Xrotation
									End Site
									{
										OFFSET 0.000000 0.000000 0.000000
									}
								}
							}
						}
					}
				}
			}
		}
	}
}
MOTION
Frames: 10
Frame Time: 0.100000
0.000000 0.000000 0.000000 176.325042 29.595431 -23.152583 3.564435 5.157435 16.907088 -0.117573 -9.977317 -2.856687 3.612934 4.781359 -3.664852 -8.314186 9.334817 -2.865162 -2.907779 -6.613602 19.698406 -0.776120 -1.077905 -3.901277 -5.854425 -10.195804 -6.526500 10.660869 -0.811369 9.897186 0.443275 0.810759 4.998288 0.111853 -4.062813 6.779864 -0.479074 -3.157418 -1.105182 0.781479 -10.608812 10.690420 -1.781262 -11.525830 5.738069 -32.058128 -0.695384 7.202045 -50.020104 -8.810223 7.361756 1.060283 -16.083919 14.077234 -13.408253 3.518348 -2.266804 -7.550679 -3.671730 -8.822837 32.712930 5.429010 5.034457 52.155078 3.796290 11.666731 -5.508605 12.413727 -0.895462 8.358757 -3.985264 -0.295633 10.753647 8.460862 -3.453877 
0.001844 0.000029 -0.000297 176.420017 29.471888 -23.329323 3.605090 5.262110 17.076243 -0.081474 -9.986749 -2.816577 3.659471 4.790113 -3.475713 -8.416379 9.373000 -3.054496 -2.900667 -6.548643 19.773600 -0.763370 -1.013185 -3.738016 -6.104644 -10.161423 -6.540720 11.022891 -0.885455 10.060927 0.443246 0.659282 4.892180 0.152147 -4.196910 6.877853 -0.557813 -3.283314 -0.951969 0.457420 -10.317350 12.403374 -2.354289 -11.212619 6.934690 -31.869515 -0.706733 7.437151 -49.880046 -8.934516 7.585661 0.854685 -16.624735 14.853836 -13.446888 3.617102 -2.011826 -7.606460 -3.639007 -8.927344 32.702150 5.349243 5.019787 52.111517 4.105885 11.794117 -5.417036 12.766664 -0.568637 8.311048 -4.003524 -0.214577 10.837854 8.481840 -3.457617 
0.004040 0.000328 -0.001734 176.495314 29.295465 -23.315543 3.559527 5.214722 16.746363 -0.072820 -9.863540 -2.408732 3.781619 4.876609 -3.456966 -8.537197 9.376625 -3.118748 -2.834613 -6.482146 19.499526 -0.748209 -0.960707 -3.534303 -6.298698 -10.090111 -6.575029 11.231482 -1.008980 10.195050 0.529988 0.619073 5.115547 0.195028 -4.242156 6.906033 -0.531785 -3.302808 -0.906441 0.259134 -10.234477 12.727938 -2.498972 -11.103352 7.080065 -31.795483 -0.952194 7.560852 -49.849313 -8.988089 7.750866 0.714811 -16.867079 15.217464 -13.498201 3.633822 -1.998415 -7.627437 -3.614554 -8.954029 32.647458 5.537854 5.150996 51.949081 4.240743 11.816624 -5.311200 12.827011 -0.375967 8.304085 -3.990494 -0.183921 10.858393 8.489471 -3.497256 
0.006415 0.000745 -0.003959 176.575989 29.163620 -23.100870 3.520450 5.193536 16.296291 -0.108008 -9.652675 -2.225323 3.747233 4.913643 -3.346815 -8.504750 9.298319 -3.125935 -2.759334 -6.412567 19.071694 -0.743143 -0.966602 -3.477158 -6.300023 -9.988078 -6.530080 11.140986 -1.119466 10.186488 0.629862 0.611017 5.377855 0.184736 -4.238373 6.771186 -0.493368 -3.267646 -0.957146 0.198148 -10.331311 12.107209 -2.306693 -11.215592 6.583776 -31.714365 -1.176618 7.564721 -49.995240 -8.962223 7.830028 0.676214 -16.638831 15.264447 -13.514464 3.565013 -1.978101 -7.599538 -3.580730 -8.984591 32.492278 5.746442 5.227413 52.049673 4.215449 11.782830 -5.201463 12.537499 -0.281670 8.344420 -3.965591 -0.226386 10.787741 8.453924 -3.542721 
0.008415 0.001047 -0.005819 176.632988 29.106661 -22.860314 3.472749 5.176019 15.828034 -0.115990 -9.471093 -2.103479 3.571583 4.914057 -3.181590 -8.311363 9.164161 -3.176456 -2.686778 -6.329568 18.598638 -0.739791 -0.984196 -3.377233 -6.192689 -9.943132 -6.485450 10.887952 -1.165431 10.089629 0.724076 0.558686 5.602087 0.181867 -4.255307 6.548939 -0.423118 -3.273441 -1.010324 0.059053 -10.279500 11.193406 -2.203057 -11.238807 5.933111 -31.566264 -1.316206 7.479944 -50.179583 -8.841515 7.940887 0.586338 -16.491634 15.463130 -13.416950 3.452776 -1.879032 -7.598989 -3.557819 -9.056829 32.320768 5.857696 5.181865 52.118561 4.143938 11.807885 -5.145394 12.550880 -0.114454 8.282302 -3.859886 -0.229972 10.737547 8.411511 -3.604028 
0.010515 0.001222 -0.007465 176.659327 29.321064 -22.665163 3.580757 5.218147 15.479067 -0.264599 -9.506269 -2.139424 3.253331 4.696668 -3.017999 -8.068647 8.957233 -3.212411 -2.682017 -6.327498 18.015277 -0.690226 -1.112359 -2.865554 -6.145327 -9.908727 -6.630795 10.760527 -1.347259 9.876312 0.789191 0.457093 5.866748 0.159273 -4.288497 6.418761 -0.341534 -3.295052 -1.092466 -0.008640 -10.027327 9.733241 -1.928249 -11.088697 4.596510 -31.305305 -1.448431 7.438457 -50.276009 -8.480248 8.156927 0.381879 -17.169355 16.203669 -13.155574 3.139987 -1.804008 -7.603564 -3.500584 -9.146222 32.047111 5.943684 5.143053 52.221616 3.900745 11.814759 -5.076249 13.028913 0.359098 8.186488 -3.668874 -0.269918 10.648525 8.350528 -3.675471 
0.014272 0.001307 -0.007887 176.553581 30.074782 -22.413409 3.791816 5.158863 14.912549 -0.356570 -9.800592 -2.204054 2.789414 4.358591 -2.855795 -7.781164 8.618250 -3.192333 -2.540711 -6.492985 17.208210 -0.643496 -1.525936 -2.018626 -6.151021 -9.779534 -6.999638 10.800222 -2.020356 9.416316 0.771574 0.474934 6.420101 0.120225 -4.260637 6.191015 -0.113446 -3.233158 -1.190040 0.147697 -9.729463 6.985462 -0.907068 -10.853588 1.454464 -30.720327 -1.487156 7.043236 -50.390447 -7.884867 8.427215 0.060058 -18.485527 17.442839 -12.669272 2.722610 -1.528619 -7.627718 -3.419201 -9.309308 31.370059 5.769765 4.882036 52.752888 3.083818 11.624602 -5.309291 14.143454 0.902073 8.128635 -3.351364 -0.696893 10.466571 8.268014 -3.792737 
0.019069 0.001455 -0.003858 176.492740 31.056576 -22.871321 4.008230 5.079934 15.029625 -0.288701 -10.262147 -1.787813 2.699877 4.139401 -2.847181 -7.903389 8.476682 -3.366391 -2.437146 -6.819727 17.496009 -0.565943 -1.888753 -1.294785 -6.626827 -9.979683 -7.547360 11.322195 -2.292005 9.494622 0.623599 0.658056 6.329832 0.039695 -4.102469 6.105318 -0.125436 -3.140954 -1.249285 -0.049266 -9.488062 7.559617 -1.077447 -10.559100 1.694096 -30.535283 -1.406263 7.058495 -50.150220 -7.791507 8.304690 -0.033817 -18.481714 17.585499 -12.874939 2.772688 -1.657403 -7.541756 -3.360878 -9.224885 31.333325 5.594874 5.099878 52.858403 2.766694 11.350832 -5.296908 13.745446 0.747906 8.413960 -3.410200 -1.080400 10.333485 8.215242 -3.640123 
0.023889 0.000769 0.007614 176.538555 31.873348 -24.734261 4.599546 5.095549 17.449937 -0.091454 -11.306269 -1.924719 3.055023 4.110679 -2.872465 -8.589804 8.608725 -3.621298 -2.629057 -7.278587 20.132251 -0.225389 -1.879986 -1.229505 -8.213394 -10.324363 -8.104921 13.462334 -2.527715 10.433379 0.327492 0.899160 4.809123 0.049873 -3.975707 7.080337 -0.456828 -3.070208 -0.978768 -1.151235 -9.158523 14.705951 -3.195393 -10.170042 6.588717 -30.365593 -1.005461 7.877445 -49.341852 -7.976830 7.904782 -0.297413 -16.979696 17.345939 -14.072969 3.184948 -2.826549 -7.220203 -3.202208 -8.944644 31.947279 5.554393 5.849577 52.113548 3.873188 11.432669 -4.550783 12.621970 1.218708 8.933631 -3.948213 -1.327527 10.362348 8.243600 -3.163426 
0.032858 0.000393 0.019709 176.404880 32.758673 -26.349296 5.254078 5.213959 18.767581 0.340409 -12.421400 -0.946870 3.207756 4.219078 -3.382080 -8.859210 8.811814 -3.777070 -2.533548 -7.819311 22.446375 0.207892 -1.443314 -1.436488 -9.609444 -10.877284 -8.715820 15.430375 -2.839410 11.146693 0.067612 1.099126 3.987170 0.410600 -4.097816 8.435773 -0.339124 -3.159340 -0.172369 -1.333857 -8.153501 19.353351 -4.871188 -9.367963 9.217223 -30.112845 -0.280206 8.519188 -47.552812 -6.127019 8.531017 -2.387237 -17.072853 21.811204 -14.016038 4.001843 -0.893730 -7.845016 -3.421113 -10.202365 32.468272 5.389404 5.753947 50.023398 4.950371 11.883407 -3.500379 15.064216 3.942067 8.149574 -3.831612 0.254079 11.292184 8.604963 -3.545826 
